<svg width="567" height="44" viewBox="0 0 567 44" fill="none" xmlns="http://www.w3.org/2000/svg">
<path d="M0 2.99414H519.508L530.122 20.2074L507.714 38.9855H0V2.99414Z" fill="#F0EEEE"/>
<g filter="url(#filter0_d_0_1)">
<path d="M515.095 10.2736C513.47 8.47255 513.609 5.59084 515.095 4.51023C517.472 2.7812 521.038 3.7898 522.524 4.51023C528.715 7.512 540.874 14.8844 539.983 20.3596C539.091 25.8349 518.314 34.8882 508.037 38.7305C506.552 39.286 503.357 40.4595 503.951 37.2896C504.546 34.1197 510.638 29.7252 513.238 28.2843L522.524 23.2413C523.639 22.5209 525.423 21.4402 525.423 19.9994C525.423 18.1983 523.019 16.5173 521.781 15.6768C520.419 14.8363 517.175 12.579 515.095 10.2736Z" fill="#F26D1E"/>
<path d="M515.095 10.2736C513.47 8.47255 513.609 5.59084 515.095 4.51023C517.472 2.7812 521.038 3.7898 522.524 4.51023C528.715 7.512 540.874 14.8844 539.983 20.3596C539.091 25.8349 518.314 34.8882 508.037 38.7305C506.552 39.286 503.357 40.4595 503.951 37.2896C504.546 34.1197 510.638 29.7252 513.238 28.2843L522.524 23.2413C523.639 22.5209 525.423 21.4402 525.423 19.9994C525.423 18.1983 523.019 16.5173 521.781 15.6768C520.419 14.8363 517.175 12.579 515.095 10.2736Z" stroke="#F0EEEE" stroke-width="4.49892"/>
</g>
<path d="M515.095 10.2736C513.47 8.47255 513.609 5.59084 515.095 4.51023C517.472 2.7812 521.038 3.7898 522.524 4.51023C528.715 7.512 540.874 14.8844 539.983 20.3596C539.091 25.8349 518.314 34.8882 508.037 38.7305C506.552 39.286 503.357 40.4595 503.951 37.2896C504.546 34.1197 510.638 29.7252 513.238 28.2843L522.524 23.2413C523.639 22.5209 525.423 21.4402 525.423 19.9994C525.423 18.1983 523.019 16.5173 521.781 15.6768C520.419 14.8363 517.175 12.579 515.095 10.2736Z" fill="#F26D1E"/>
<g filter="url(#filter1_f_0_1)">
<path d="M532.851 24.3217C526.693 26.8609 519.494 29.2569 518.231 27.9132C516.967 26.5694 527.279 23.9615 527.279 19.9991C527.279 17.8378 524.99 15.9783 523.936 14.9561C521.336 12.4346 519.478 11.354 517.621 9.19271C514.773 5.87861 517.224 4.8702 521.336 6.67128C524.87 8.2195 532.772 12.4346 536.911 17.1174C539.14 19.6389 538.363 22.0487 532.851 24.3217Z" fill="#F4901A" fill-opacity="0.8"/>
</g>
<g filter="url(#filter2_d_0_1)">
<path d="M537.381 10.2732C535.756 8.47206 535.895 5.59036 537.381 4.50974C539.758 2.78071 543.324 3.78931 544.81 4.50974C551.001 7.51152 563.16 14.8839 562.268 20.3591C561.377 25.8344 540.6 34.8877 530.323 38.73C528.837 39.2855 525.643 40.459 526.237 37.2891C526.832 34.1193 532.923 29.7247 535.524 28.2838L544.81 23.2408C545.924 22.5204 547.709 21.4397 547.709 19.9989C547.709 18.1978 545.305 16.5169 544.067 15.6764C542.705 14.8359 539.461 12.5785 537.381 10.2732Z" fill="#F26D1E"/>
<path d="M537.381 10.2732C535.756 8.47206 535.895 5.59036 537.381 4.50974C539.758 2.78071 543.324 3.78931 544.81 4.50974C551.001 7.51152 563.16 14.8839 562.268 20.3591C561.377 25.8344 540.6 34.8877 530.323 38.73C528.837 39.2855 525.643 40.459 526.237 37.2891C526.832 34.1193 532.923 29.7247 535.524 28.2838L544.81 23.2408C545.924 22.5204 547.709 21.4397 547.709 19.9989C547.709 18.1978 545.305 16.5169 544.067 15.6764C542.705 14.8359 539.461 12.5785 537.381 10.2732Z" stroke="#F0EEEE" stroke-width="4.49892"/>
</g>
<path d="M545.472 21.4642L542.96 22.8282C541.503 23.6197 539.891 22.0688 540.625 20.582C540.874 20.0797 540.858 19.4874 540.584 18.9986L539.221 16.5658C538.937 16.0588 538.581 15.5959 538.164 15.1913L536.193 13.2798L533.313 10.8857C532.671 10.3525 533.146 9.31388 533.969 9.45014C533.985 9.45287 534.001 9.45592 534.017 9.45954C534.171 9.49373 535.047 9.68315 535.824 9.73571C536.063 9.7519 536.296 9.82907 536.485 9.9761C536.538 10.0172 536.587 10.0632 536.631 10.1134L538.442 12.1623C538.676 12.4265 538.932 12.6696 539.208 12.8888L542.879 15.8013L545.865 18.8537C546.397 19.3975 546.489 20.234 546.089 20.8809C545.938 21.1257 545.725 21.3268 545.472 21.4642Z" fill="#F0EEEE"/>
<path d="M537.381 10.2732C535.756 8.47206 535.895 5.59036 537.381 4.50974C539.758 2.78071 543.324 3.78931 544.81 4.50974C551.001 7.51152 563.16 14.8839 562.268 20.3591C561.377 25.8344 540.6 34.8877 530.323 38.73C528.837 39.2855 525.643 40.459 526.237 37.2891C526.832 34.1193 532.923 29.7247 535.524 28.2838L544.81 23.2408C545.924 22.5204 547.709 21.4397 547.709 19.9989C547.709 18.1978 545.305 16.5169 544.067 15.6764C542.705 14.8359 539.461 12.5785 537.381 10.2732Z" fill="#F26D1E"/>
<path d="M533.691 27.1554L539.501 22.9296C540.121 22.4783 540.992 22.9216 540.992 23.6889C540.992 24.0104 540.827 24.3096 540.556 24.4818L533.082 29.2204L528.823 31.8755L527.658 32.8174C527.281 33.1217 526.737 33.0971 526.389 32.7601C525.932 32.3169 526.027 31.5595 526.579 31.2424L533.691 27.1554Z" fill="#F0EEEE"/>
<g filter="url(#filter3_f_0_1)">
<path d="M555.14 24.3211C549.569 26.8603 541.806 29.2564 540.788 27.9126C539.77 26.5688 549.569 23.9609 549.569 19.9985C549.569 17.8372 547.28 15.9777 546.226 14.9555C543.625 12.4339 541.768 11.3534 539.911 9.1921C537.063 5.87799 539.514 4.86959 543.625 6.67067C547.159 8.21889 555.062 12.434 559.201 17.1168C561.43 19.6383 560.561 21.8507 555.14 24.3211Z" fill="#F4901A" fill-opacity="0.8"/>
</g>
<defs>
<filter id="filter0_d_0_1" x="500.13" y="0.556577" width="43.6487" height="43.3512" filterUnits="userSpaceOnUse" color-interpolation-filters="sRGB">
<feFlood flood-opacity="0" result="BackgroundImageFix"/>
<feColorMatrix in="SourceAlpha" type="matrix" values="0 0 0 0 0 0 0 0 0 0 0 0 0 0 0 0 0 0 127 0" result="hardAlpha"/>
<feOffset dy="0.749819"/>
<feGaussianBlur stdDeviation="0.749819"/>
<feColorMatrix type="matrix" values="0 0 0 0 0 0 0 0 0 0 0 0 0 0 0 0 0 0 0.25 0"/>
<feBlend mode="normal" in2="BackgroundImageFix" result="effect1_dropShadow_0_1"/>
<feBlend mode="normal" in="SourceGraphic" in2="effect1_dropShadow_0_1" result="shape"/>
</filter>
<filter id="filter1_f_0_1" x="515.641" y="5.03814" width="23.1834" height="24.0111" filterUnits="userSpaceOnUse" color-interpolation-filters="sRGB">
<feFlood flood-opacity="0" result="BackgroundImageFix"/>
<feBlend mode="normal" in="SourceGraphic" in2="BackgroundImageFix" result="shape"/>
<feGaussianBlur stdDeviation="0.37491" result="effect1_foregroundBlur_0_1"/>
</filter>
<filter id="filter2_d_0_1" x="522.416" y="0.556089" width="43.6487" height="43.3512" filterUnits="userSpaceOnUse" color-interpolation-filters="sRGB">
<feFlood flood-opacity="0" result="BackgroundImageFix"/>
<feColorMatrix in="SourceAlpha" type="matrix" values="0 0 0 0 0 0 0 0 0 0 0 0 0 0 0 0 0 0 127 0" result="hardAlpha"/>
<feOffset dy="0.749819"/>
<feGaussianBlur stdDeviation="0.749819"/>
<feColorMatrix type="matrix" values="0 0 0 0 0 0 0 0 0 0 0 0 0 0 0 0 0 0 0.25 0"/>
<feBlend mode="normal" in2="BackgroundImageFix" result="effect1_dropShadow_0_1"/>
<feBlend mode="normal" in="SourceGraphic" in2="effect1_dropShadow_0_1" result="shape"/>
</filter>
<filter id="filter3_f_0_1" x="537.93" y="5.03753" width="23.163" height="24.0111" filterUnits="userSpaceOnUse" color-interpolation-filters="sRGB">
<feFlood flood-opacity="0" result="BackgroundImageFix"/>
<feBlend mode="normal" in="SourceGraphic" in2="BackgroundImageFix" result="shape"/>
<feGaussianBlur stdDeviation="0.37491" result="effect1_foregroundBlur_0_1"/>
</filter>
</defs>
</svg>
