<svg width="182" height="16" viewBox="0 0 182 16" fill="none" xmlns="http://www.w3.org/2000/svg">
<path d="M10.386 6H9.05445V5C9.05445 4.45 8.57511 4 7.98924 4H1.59793C1.01206 4 0.532715 4.45 0.532715 5V9.5C0.532715 10.05 1.01206 10.5 1.59793 10.5C1.59793 11.33 2.31163 12 3.19576 12C4.07989 12 4.79358 11.33 4.79358 10.5H7.98924C7.98924 11.33 8.70293 12 9.58706 12C10.4712 12 11.1849 11.33 11.1849 10.5H11.7175C12.0104 10.5 12.2501 10.275 12.2501 10V8.335C12.2501 8.12 12.1755 7.91 12.0371 7.735L10.8121 6.2C10.7109 6.075 10.5511 6 10.386 6ZM3.19576 11C2.90282 11 2.66315 10.775 2.66315 10.5C2.66315 10.225 2.90282 10 3.19576 10C3.48869 10 3.72837 10.225 3.72837 10.5C3.72837 10.775 3.48869 11 3.19576 11ZM10.386 6.75L11.4299 8H9.05445V6.75H10.386ZM9.58706 11C9.29413 11 9.05445 10.775 9.05445 10.5C9.05445 10.225 9.29413 10 9.58706 10C9.88 10 10.1197 10.225 10.1197 10.5C10.1197 10.775 9.88 11 9.58706 11Z" fill="#0060B1"/>
<path d="M25.9162 3.636V4.524H22.2802V7.344H25.2322V8.232H22.2802V12H21.1882V3.636H25.9162ZM31.639 12L29.647 8.58H28.327V12H27.235V3.636H29.935C30.567 3.636 31.099 3.744 31.531 3.96C31.971 4.176 32.299 4.468 32.515 4.836C32.731 5.204 32.839 5.624 32.839 6.096C32.839 6.672 32.671 7.18 32.335 7.62C32.007 8.06 31.511 8.352 30.847 8.496L32.947 12H31.639ZM28.327 7.704H29.935C30.527 7.704 30.971 7.56 31.267 7.272C31.563 6.976 31.711 6.584 31.711 6.096C31.711 5.6 31.563 5.216 31.267 4.944C30.979 4.672 30.535 4.536 29.935 4.536H28.327V7.704ZM35.6278 4.524V7.32H38.6758V8.22H35.6278V11.1H39.0358V12H34.5358V3.624H39.0358V4.524H35.6278ZM45.8362 3.636V4.524H43.5562V12H42.4642V4.524H40.1722V3.636H45.8362ZM48.2723 4.524V7.32H51.3203V8.22H48.2723V11.1H51.6803V12H47.1803V3.624H51.6803V4.524H48.2723ZM62.8679 6.06C62.6359 5.572 62.2999 5.196 61.8599 4.932C61.4199 4.66 60.9079 4.524 60.3239 4.524C59.7399 4.524 59.2119 4.66 58.7399 4.932C58.2759 5.196 57.9079 5.58 57.6359 6.084C57.3719 6.58 57.2399 7.156 57.2399 7.812C57.2399 8.468 57.3719 9.044 57.6359 9.54C57.9079 10.036 58.2759 10.42 58.7399 10.692C59.2119 10.956 59.7399 11.088 60.3239 11.088C61.1399 11.088 61.8119 10.844 62.3399 10.356C62.8679 9.868 63.1759 9.208 63.2639 8.376H59.9279V7.488H64.4279V8.328C64.3639 9.016 64.1479 9.648 63.7799 10.224C63.4119 10.792 62.9279 11.244 62.3279 11.58C61.7279 11.908 61.0599 12.072 60.3239 12.072C59.5479 12.072 58.8399 11.892 58.1999 11.532C57.5599 11.164 57.0519 10.656 56.6759 10.008C56.3079 9.36 56.1239 8.628 56.1239 7.812C56.1239 6.996 56.3079 6.264 56.6759 5.616C57.0519 4.96 57.5599 4.452 58.1999 4.092C58.8399 3.724 59.5479 3.54 60.3239 3.54C61.2119 3.54 61.9959 3.76 62.6759 4.2C63.3639 4.64 63.8639 5.26 64.1759 6.06H62.8679ZM70.2758 12L68.2838 8.58H66.9638V12H65.8718V3.636H68.5718C69.2038 3.636 69.7358 3.744 70.1678 3.96C70.6078 4.176 70.9358 4.468 71.1518 4.836C71.3678 5.204 71.4758 5.624 71.4758 6.096C71.4758 6.672 71.3078 7.18 70.9718 7.62C70.6438 8.06 70.1478 8.352 69.4838 8.496L71.5838 12H70.2758ZM66.9638 7.704H68.5718C69.1638 7.704 69.6078 7.56 69.9038 7.272C70.1998 6.976 70.3478 6.584 70.3478 6.096C70.3478 5.6 70.1998 5.216 69.9038 4.944C69.6158 4.672 69.1718 4.536 68.5718 4.536H66.9638V7.704ZM78.1165 10.14H74.4685L73.7965 12H72.6445L75.6685 3.684H76.9285L79.9405 12H78.7885L78.1165 10.14ZM77.8045 9.252L76.2925 5.028L74.7805 9.252H77.8045ZM77.4685 1.824L74.9125 3.192V2.376L77.4685 0.875999V1.824ZM86.4065 3.636V4.524H84.1265V12H83.0345V4.524H80.7425V3.636H86.4065ZM88.8427 3.636V12H87.7507V3.636H88.8427ZM93.3558 12.084C92.8038 12.084 92.3078 11.988 91.8678 11.796C91.4358 11.596 91.0958 11.324 90.8478 10.98C90.5998 10.628 90.4718 10.224 90.4638 9.768H91.6278C91.6678 10.16 91.8278 10.492 92.1078 10.764C92.3958 11.028 92.8118 11.16 93.3558 11.16C93.8758 11.16 94.2838 11.032 94.5798 10.776C94.8838 10.512 95.0358 10.176 95.0358 9.768C95.0358 9.448 94.9478 9.188 94.7718 8.988C94.5958 8.788 94.3758 8.636 94.1118 8.532C93.8478 8.428 93.4918 8.316 93.0438 8.196C92.4918 8.052 92.0478 7.908 91.7118 7.764C91.3838 7.62 91.0998 7.396 90.8598 7.092C90.6278 6.78 90.5118 6.364 90.5118 5.844C90.5118 5.388 90.6278 4.984 90.8598 4.632C91.0918 4.28 91.4158 4.008 91.8318 3.816C92.2558 3.624 92.7398 3.528 93.2838 3.528C94.0678 3.528 94.7078 3.724 95.2038 4.116C95.7078 4.508 95.9918 5.028 96.0558 5.676H94.8558C94.8158 5.356 94.6478 5.076 94.3518 4.836C94.0558 4.588 93.6638 4.464 93.1758 4.464C92.7198 4.464 92.3478 4.584 92.0598 4.824C91.7718 5.056 91.6278 5.384 91.6278 5.808C91.6278 6.112 91.7118 6.36 91.8798 6.552C92.0558 6.744 92.2678 6.892 92.5158 6.996C92.7718 7.092 93.1278 7.204 93.5838 7.332C94.1358 7.484 94.5798 7.636 94.9158 7.788C95.2518 7.932 95.5398 8.16 95.7798 8.472C96.0198 8.776 96.1398 9.192 96.1398 9.72C96.1398 10.128 96.0318 10.512 95.8158 10.872C95.5998 11.232 95.2798 11.524 94.8558 11.748C94.4318 11.972 93.9318 12.084 93.3558 12.084Z" fill="#565C69"/>
<path d="M114.028 8.00055C113.73 8.00055 113.449 7.83984 113.297 7.58271L112.162 5.67919L111.029 7.58271C110.876 7.84163 110.595 8.00234 110.297 8.00234C110.217 8.00234 110.138 7.99162 110.062 7.96841L107.644 7.26843V10.4469C107.644 10.7094 107.82 10.938 108.071 11.0005L111.887 11.9665C112.067 12.0112 112.256 12.0112 112.434 11.9665L116.254 11.0005C116.505 10.9362 116.681 10.7076 116.681 10.4469V7.26843L114.263 7.96663C114.187 7.98984 114.108 8.00055 114.028 8.00055ZM117.781 5.99704L116.872 4.16137C116.817 4.05066 116.699 3.98637 116.577 4.00245L112.162 4.57207L113.781 7.28807C113.848 7.40057 113.982 7.45414 114.108 7.41843L117.601 6.40952C117.775 6.35774 117.86 6.16132 117.781 5.99704ZM107.453 4.16137L106.544 5.99704C106.463 6.16132 106.549 6.35774 106.722 6.40774L110.216 7.41664C110.341 7.45235 110.475 7.39878 110.542 7.28629L112.162 4.57207L107.746 4.00245C107.624 3.98816 107.508 4.05066 107.453 4.16137Z" fill="#0060B1"/>
<path d="M127.148 12.084C126.372 12.084 125.664 11.904 125.024 11.544C124.384 11.176 123.876 10.668 123.5 10.02C123.132 9.364 122.948 8.628 122.948 7.812C122.948 6.996 123.132 6.264 123.5 5.616C123.876 4.96 124.384 4.452 125.024 4.092C125.664 3.724 126.372 3.54 127.148 3.54C127.932 3.54 128.644 3.724 129.284 4.092C129.924 4.452 130.428 4.956 130.796 5.604C131.164 6.252 131.348 6.988 131.348 7.812C131.348 8.636 131.164 9.372 130.796 10.02C130.428 10.668 129.924 11.176 129.284 11.544C128.644 11.904 127.932 12.084 127.148 12.084ZM127.148 11.136C127.732 11.136 128.256 11 128.72 10.728C129.192 10.456 129.56 10.068 129.824 9.564C130.096 9.06 130.232 8.476 130.232 7.812C130.232 7.14 130.096 6.556 129.824 6.06C129.56 5.556 129.196 5.168 128.732 4.896C128.268 4.624 127.74 4.488 127.148 4.488C126.556 4.488 126.028 4.624 125.564 4.896C125.1 5.168 124.732 5.556 124.46 6.06C124.196 6.556 124.064 7.14 124.064 7.812C124.064 8.476 124.196 9.06 124.46 9.564C124.732 10.068 125.1 10.456 125.564 10.728C126.036 11 126.564 11.136 127.148 11.136ZM138.382 6.084C138.382 6.78 138.142 7.36 137.662 7.824C137.19 8.28 136.466 8.508 135.49 8.508H133.882V12H132.79V3.636H135.49C136.434 3.636 137.15 3.864 137.638 4.32C138.134 4.776 138.382 5.364 138.382 6.084ZM135.49 7.608C136.098 7.608 136.546 7.476 136.834 7.212C137.122 6.948 137.266 6.572 137.266 6.084C137.266 5.052 136.674 4.536 135.49 4.536H133.882V7.608H135.49ZM140.831 4.524V7.32H143.879V8.22H140.831V11.1H144.239V12H139.739V3.624H144.239V4.524H140.831ZM152.468 12H151.376L146.984 5.34V12H145.892V3.624H146.984L151.376 10.272V3.624H152.468V12ZM161.716 7.692C162.02 7.74 162.296 7.864 162.544 8.064C162.8 8.264 163 8.512 163.144 8.808C163.296 9.104 163.372 9.42 163.372 9.756C163.372 10.18 163.264 10.564 163.048 10.908C162.832 11.244 162.516 11.512 162.1 11.712C161.692 11.904 161.208 12 160.648 12H157.528V3.636H160.528C161.096 3.636 161.58 3.732 161.98 3.924C162.38 4.108 162.68 4.36 162.88 4.68C163.08 5 163.18 5.36 163.18 5.76C163.18 6.256 163.044 6.668 162.772 6.996C162.508 7.316 162.156 7.548 161.716 7.692ZM158.62 7.248H160.456C160.968 7.248 161.364 7.128 161.644 6.888C161.924 6.648 162.064 6.316 162.064 5.892C162.064 5.468 161.924 5.136 161.644 4.896C161.364 4.656 160.96 4.536 160.432 4.536H158.62V7.248ZM160.552 11.1C161.096 11.1 161.52 10.972 161.824 10.716C162.128 10.46 162.28 10.104 162.28 9.648C162.28 9.184 162.12 8.82 161.8 8.556C161.48 8.284 161.052 8.148 160.516 8.148H158.62V11.1H160.552ZM168.68 12.084C167.904 12.084 167.196 11.904 166.556 11.544C165.916 11.176 165.408 10.668 165.032 10.02C164.664 9.364 164.48 8.628 164.48 7.812C164.48 6.996 164.664 6.264 165.032 5.616C165.408 4.96 165.916 4.452 166.556 4.092C167.196 3.724 167.904 3.54 168.68 3.54C169.464 3.54 170.176 3.724 170.816 4.092C171.456 4.452 171.96 4.956 172.328 5.604C172.696 6.252 172.88 6.988 172.88 7.812C172.88 8.636 172.696 9.372 172.328 10.02C171.96 10.668 171.456 11.176 170.816 11.544C170.176 11.904 169.464 12.084 168.68 12.084ZM168.68 11.136C169.264 11.136 169.788 11 170.252 10.728C170.724 10.456 171.092 10.068 171.356 9.564C171.628 9.06 171.764 8.476 171.764 7.812C171.764 7.14 171.628 6.556 171.356 6.06C171.092 5.556 170.728 5.168 170.264 4.896C169.8 4.624 169.272 4.488 168.68 4.488C168.088 4.488 167.56 4.624 167.096 4.896C166.632 5.168 166.264 5.556 165.992 6.06C165.728 6.556 165.596 7.14 165.596 7.812C165.596 8.476 165.728 9.06 165.992 9.564C166.264 10.068 166.632 10.456 167.096 10.728C167.568 11 168.096 11.136 168.68 11.136ZM177.741 7.824L180.309 12H179.073L177.069 8.736L175.161 12H173.949L176.505 7.824L173.937 3.636H175.161L177.177 6.912L179.097 3.636H180.321L177.741 7.824Z" fill="#565C69"/>
</svg>
